<?xml version="1.0" standalone="no"?>
<!DOCTYPE svg PUBLIC "-//W3C//DTD SVG 20010904//EN"
 "http://www.w3.org/TR/2001/REC-SVG-20010904/DTD/svg10.dtd">
<svg version="1.0" xmlns="http://www.w3.org/2000/svg"
 width="790.000000pt" height="790.000000pt" viewBox="0 0 790.000000 790.000000"
 preserveAspectRatio="xMidYMid meet">
<metadata>
Created by potrace 1.11, written by Peter Selinger 2001-2013
</metadata>
<g transform="translate(0.000000,790.000000) scale(0.100000,-0.100000)"
fill="#000000" stroke="none">
<path d="M2845 7128 c-33 -12 -55 -31 -55 -47 0 -6 -4 -11 -10 -11 -8 0 -17
-21 -26 -62 -1 -5 -2 -32 -3 -61 -1 -51 -3 -54 -36 -70 -20 -9 -42 -17 -50
-17 -8 0 -15 -4 -15 -9 0 -5 -10 -13 -22 -16 -23 -7 -169 -92 -178 -104 -3 -3
-23 -19 -45 -36 -111 -82 -215 -213 -287 -359 -26 -55 -48 -105 -48 -113 0 -7
-4 -21 -9 -31 -10 -18 -23 -64 -26 -94 -2 -10 -3 -19 -4 -20 -2 -2 -4 -16 -6
-33 -2 -16 -7 -50 -10 -75 -4 -25 -6 -103 -5 -175 4 -358 4 -413 -3 -450 -11
-60 -28 -119 -37 -130 -5 -5 -8 -12 -8 -15 0 -13 -26 -60 -34 -60 -4 0 -7 -4
-6 -8 2 -5 -49 -76 -113 -158 -63 -82 -132 -174 -152 -204 -20 -30 -40 -59
-44 -65 -5 -5 -9 -27 -11 -47 -11 -122 124 -153 398 -93 81 18 196 25 220 14
8 -4 29 -13 47 -19 64 -24 119 -94 197 -249 135 -270 179 -545 126 -786 -25
-112 -25 -113 -44 -158 -8 -20 -12 -37 -8 -37 3 0 1 -5 -6 -12 -7 -7 -12 -18
-12 -25 0 -24 -112 -263 -153 -326 -38 -59 -128 -169 -173 -212 -95 -88 -165
-146 -234 -191 -25 -16 -47 -31 -50 -35 -3 -3 -39 -25 -80 -49 -104 -60 -253
-160 -263 -177 -5 -7 -12 -11 -18 -8 -5 4 -9 2 -9 -2 0 -5 -24 -27 -52 -48
-29 -22 -60 -47 -68 -55 -9 -8 -35 -32 -59 -53 -23 -21 -41 -40 -39 -42 1 -2
89 -6 193 -9 183 -5 290 -11 385 -20 25 -3 74 -8 110 -11 36 -3 81 -8 100 -11
19 -2 58 -6 85 -8 28 -3 64 -7 80 -10 17 -3 47 -8 68 -11 20 -3 54 -8 75 -11
20 -3 51 -7 67 -9 17 -3 41 -7 55 -10 14 -3 41 -8 60 -11 19 -3 42 -7 50 -9 8
-3 32 -7 54 -11 21 -3 48 -8 60 -10 11 -3 32 -7 45 -10 13 -3 54 -12 90 -20
36 -8 77 -17 91 -20 89 -19 292 -72 350 -92 8 -3 24 -7 35 -9 56 -10 490 -163
590 -208 17 -7 64 -28 105 -46 95 -40 345 -165 430 -214 36 -21 81 -46 100
-57 45 -26 193 -121 200 -128 3 -3 12 -9 21 -15 92 -57 300 -221 404 -317 22
-20 41 -35 43 -33 3 3 -34 155 -45 185 -4 8 -7 17 -8 20 -1 3 -7 25 -15 50 -7
25 -17 49 -22 55 -4 5 -8 17 -8 27 0 10 -4 26 -9 36 -5 9 -29 67 -52 127 -45
114 -179 387 -204 416 -8 8 -15 19 -15 23 0 10 -102 160 -112 164 -4 2 -8 10
-8 17 0 7 -3 15 -7 17 -5 2 -28 28 -52 58 -69 86 -229 238 -307 290 -45 31
-75 59 -81 77 -22 58 -61 247 -66 316 -1 15 -4 27 -7 27 -13 0 -18 237 -7 315
17 119 36 195 48 195 5 0 9 7 9 15 0 8 7 15 15 15 8 0 15 4 15 9 0 13 88 27
165 25 98 -2 260 -20 349 -39 70 -15 117 -12 164 11 93 44 142 110 142 190 0
20 -12 84 -26 142 -33 133 -29 182 23 283 29 55 44 74 65 80 15 4 29 4 33 1 3
-3 18 -8 32 -10 40 -5 105 -37 129 -64 12 -12 32 -43 44 -67 22 -44 73 -231
85 -311 4 -25 11 -67 16 -95 6 -27 12 -68 16 -90 3 -22 9 -49 13 -60 4 -11 6
-30 5 -43 -1 -12 2 -22 7 -22 5 0 7 -4 4 -8 -9 -14 60 -263 90 -327 122 -261
326 -390 549 -350 22 4 45 10 50 14 6 3 15 6 22 7 12 2 77 49 103 74 19 20 72
99 74 114 2 6 10 29 20 51 10 22 20 51 22 64 3 14 7 28 9 32 3 4 7 24 10 45 4
22 9 47 11 57 3 10 7 32 10 50 2 18 6 41 8 52 2 12 7 48 11 80 4 33 9 69 11
80 6 33 -16 96 -43 121 -45 41 -123 56 -308 57 -103 0 -126 -3 -165 -21 -63
-31 -79 -62 -72 -148 17 -200 0 -290 -60 -324 -26 -14 -29 -14 -51 10 -32 35
-63 105 -109 250 -23 69 -43 132 -46 140 -3 8 -6 21 -8 29 -2 12 -12 47 -19
71 -12 39 -25 89 -28 105 -2 11 -9 33 -15 48 -7 16 -12 33 -12 38 0 6 -18 63
-40 128 -43 127 -85 221 -101 221 -5 0 -9 6 -9 13 -2 33 -148 89 -265 101 -27
2 -51 5 -52 5 -2 1 -3 12 -3 26 0 22 -4 36 -31 100 -23 57 -41 126 -46 175 -5
48 -2 58 17 75 23 21 38 22 237 14 98 -4 116 8 109 76 -9 81 -153 425 -178
425 -4 0 -8 6 -8 14 0 8 -4 16 -9 18 -5 2 -35 28 -68 58 -33 30 -77 71 -99 90
-50 46 -94 104 -99 133 -3 12 -9 43 -13 69 -5 25 -6 52 -1 59 4 7 6 16 3 20
-14 23 112 42 187 28 21 -3 44 -2 53 3 9 5 16 5 16 1 0 -5 98 -8 218 -7 271 3
303 7 390 44 55 24 68 41 50 69 -10 17 -80 65 -96 67 -4 0 -23 7 -42 16 -19 8
-75 29 -125 47 -49 18 -103 39 -120 46 -16 7 -41 16 -54 20 -13 4 -40 14 -60
23 -20 9 -39 15 -43 14 -5 -1 -8 2 -8 8 0 6 -4 9 -8 8 -16 -6 -147 68 -182
102 -21 19 -54 66 -74 104 -20 37 -39 73 -43 80 -4 6 -8 17 -10 25 -1 8 -6 17
-11 20 -5 3 -17 22 -27 41 -18 37 -145 241 -155 250 -3 3 -27 34 -54 70 -126
169 -223 267 -356 358 -30 20 -57 39 -60 43 -10 11 -218 109 -232 109 -8 0
-18 3 -22 8 -4 4 -11 7 -14 8 -4 0 -27 7 -52 14 -25 7 -47 14 -50 15 -3 0 -27
6 -55 13 -165 38 -463 47 -615 17 -13 -2 -40 -7 -60 -10 -34 -5 -50 -8 -102
-20 -89 -20 -95 -19 -120 19 -12 20 -31 38 -40 42 -10 3 -18 9 -18 13 0 26
-117 46 -165 29z"/>
</g>
</svg>
